<svg width="64" height="64" viewBox="0 0 64 64" fill="none" xmlns="http://www.w3.org/2000/svg">
<rect width="64" height="64" rx="32" fill="#F45308"/>
<path d="M15.0947 42.1631C15.2061 42.126 15.3669 42.0951 15.5771 42.0703C15.7998 42.0332 16.0348 42.0023 16.2822 41.9775C16.5296 41.9404 16.7708 41.9095 17.0059 41.8848C17.2409 41.86 17.4388 41.8353 17.5996 41.8105L19.5293 19.3965H19.3066C18.7995 19.3346 18.3047 19.2666 17.8223 19.1924C17.3398 19.1182 16.8451 19.0316 16.3379 18.9326C16.3008 18.6481 16.2946 18.3512 16.3193 18.042C16.3564 17.7204 16.4183 17.4173 16.5049 17.1328H24.3906L31.8496 40.1963L32.4619 37.7656L38.6406 17.1699L45.9697 17.1328L46.0625 18.9697C45.5553 19.0811 45.1038 19.1676 44.708 19.2295C44.3245 19.279 43.8792 19.3346 43.3721 19.3965L46.3594 41.8662L48.9941 42.2002C49.0312 42.4723 49.0374 42.7754 49.0127 43.1094C49.0003 43.431 48.9632 43.7279 48.9014 44L39.7725 44.0371L39.6982 42.2373L42.9453 41.9033L40.5332 23.5342L40.1807 19.5264L39.3457 23.5713L33 43.8701C32.4186 44.0186 31.8929 44.099 31.4229 44.1113C30.9652 44.1237 30.4456 44.0866 29.8643 44L22.9434 23.0889L21.9785 19.4893L21.8115 23.2002L20.2715 41.8105C20.8405 41.86 21.3848 41.9095 21.9043 41.959C22.4362 42.0085 22.8691 42.0765 23.2031 42.1631C23.2526 42.4971 23.2588 42.8125 23.2217 43.1094C23.1969 43.3939 23.166 43.6908 23.1289 44H15.1689L15.0947 42.1631Z" fill="white"/>
</svg>
